<svg width="48" height="48" viewBox="0 0 48 48" fill="none" xmlns="http://www.w3.org/2000/svg">
<path d="M38.0956 11.9702C38.9518 13.2508 39.5131 14.6698 39.7795 16.2272C40.0234 17.6424 40.0649 19.145 39.9043 20.7352C39.5622 24.1038 38.0644 26.8303 35.4109 28.9146C34.2826 29.7991 32.9512 30.5124 31.4165 31.0546C30.1994 31.4834 28.7432 31.7978 27.0479 31.9978C24.8404 32.2573 22.5545 32.3362 20.1902 32.2343C20.1537 32.2323 20.1171 32.2379 20.0828 32.2508C20.0484 32.2637 20.0171 32.2836 19.9905 32.3092C19.964 32.3349 19.9429 32.3657 19.9285 32.4C19.9141 32.4342 19.9066 32.471 19.9067 32.5083V41.8125C19.9067 41.8623 19.887 41.9099 19.8519 41.9451C19.8168 41.9802 19.7692 42 19.7196 42L8.16159 41.9827C8.11873 41.9827 8.07763 41.9654 8.04733 41.9345C8.01702 41.9037 8 41.8619 8 41.8183V6.20192C8 6.17578 8.00506 6.14991 8.01489 6.12576C8.02472 6.10162 8.03913 6.07968 8.05729 6.0612C8.07546 6.04272 8.09702 6.02806 8.12075 6.01806C8.14449 6.00806 8.16992 6.00291 8.19561 6.00291C13.2853 6.00291 18.3702 6.00195 23.4504 6.00003C25.0436 5.9981 26.6293 6.09809 28.2074 6.29998C30.2599 6.5634 32.1545 7.18926 33.8914 8.17756C35.6869 9.2024 37.0883 10.4666 38.0956 11.9702ZM26.8608 16.6714C25.9271 16.008 24.8848 15.6744 23.7339 15.6706C22.6471 15.6667 21.4413 15.6648 20.1165 15.6648C20.0608 15.6648 20.0075 15.687 19.9681 15.7265C19.9288 15.766 19.9067 15.8195 19.9067 15.8754L19.9237 23.4347C19.9235 23.4743 19.9378 23.5126 19.9639 23.5424C19.99 23.5721 20.0262 23.5913 20.0655 23.5962C21.3998 23.7577 22.7218 23.7472 24.0315 23.5645C25.4603 23.3665 26.5036 22.9473 27.1613 22.307C28.0798 21.411 28.3841 20.167 28.0741 18.5749C27.9173 17.7712 27.5128 17.1367 26.8608 16.6714Z" fill="#5D457E"/>
</svg>
