<svg width="25" height="24" viewBox="0 0 25 24" fill="none" xmlns="http://www.w3.org/2000/svg">
<path d="M22.0991 5.9479C21.3652 6.27301 20.5868 6.48641 19.7897 6.58101C20.6199 6.0834 21.2574 5.29542 21.5576 4.35655C20.7683 4.8249 19.9048 5.15488 19.0044 5.33224C18.2709 4.55084 17.226 4.0625 16.0695 4.0625C13.849 4.0625 12.0486 5.86277 12.0486 8.08317C12.0486 8.39835 12.0842 8.70518 12.1527 8.99953C8.8111 8.8318 5.84842 7.23111 3.86526 4.7985C3.51923 5.39234 3.32096 6.08309 3.32096 6.81986C3.32096 8.21484 4.03085 9.44547 5.10967 10.1665C4.47116 10.1465 3.8467 9.97409 3.28842 9.66357C3.28819 9.68041 3.28819 9.69726 3.28819 9.71417C3.28819 11.6623 4.67414 13.2874 6.51345 13.6568C5.92137 13.8178 5.30031 13.8414 4.69772 13.7257C5.20934 15.3231 6.69428 16.4855 8.45367 16.518C7.07759 17.5964 5.34385 18.2392 3.46013 18.2392C3.13554 18.2392 2.81554 18.2201 2.50098 18.183C4.28034 19.3238 6.3938 19.9895 8.66442 19.9895C16.0602 19.9895 20.1043 13.8627 20.1043 8.54947C20.1043 8.37507 20.1005 8.20168 20.0927 8.02928C20.8799 7.46023 21.5593 6.75541 22.0991 5.9479Z" fill="#55ACEE"/>
</svg>
