<svg width="24" height="16" viewBox="0 0 24 16" fill="none" xmlns="http://www.w3.org/2000/svg">
<g clip-path="url(#clip0_45_71)">
<path d="M22.7552 2.49556C22.6247 2.01321 22.3701 1.57346 22.0167 1.22011C21.6634 0.866766 21.2237 0.612143 20.7413 0.4816C18.9755 0 11.8684 0 11.8684 0C11.8684 0 4.76106 0.0145777 2.99519 0.496178C2.51284 0.626729 2.0731 0.881365 1.71976 1.23473C1.36643 1.58809 1.11183 2.02786 0.981325 2.51022C0.447192 5.64782 0.239992 10.4288 0.995992 13.4409C1.12651 13.9232 1.38112 14.363 1.73445 14.7163C2.08778 15.0697 2.52751 15.3243 3.00986 15.4548C4.77573 15.9364 11.8829 15.9364 11.8829 15.9364C11.8829 15.9364 18.99 15.9364 20.7558 15.4548C21.2382 15.3243 21.6779 15.0697 22.0313 14.7163C22.3846 14.363 22.6392 13.9233 22.7698 13.4409C23.3331 10.2988 23.5067 5.5208 22.7552 2.49556Z" fill="#FF0000"/>
<path d="M9.6062 11.3831L15.502 7.96816L9.6062 4.55322V11.3831Z" fill="white"/>
</g>
<defs>
<clipPath id="clip0_45_71">
<rect width="22.76" height="16" fill="white" transform="translate(0.5)"/>
</clipPath>
</defs>
</svg>
