<svg width="644" height="204" viewBox="0 0 644 204" fill="none" xmlns="http://www.w3.org/2000/svg">
<g clip-path="url(#clip0_102_63)">
<path d="M356.21 33.5C353.99 47.66 352.74 61.91 352.46 76.25" stroke="white" stroke-width="2"/>
<path d="M106.16 27.4401C109.18 31.8801 111.16 36.8001 112.1 42.2001C112.96 47.1068 113.107 52.3168 112.54 57.8301C111.333 69.5101 106.05 78.9634 96.69 86.1901C92.71 89.2568 88.0133 91.7301 82.6 93.6101C78.3067 95.0967 73.17 96.1867 67.19 96.8801C59.4033 97.7801 51.34 98.0534 43 97.7001C42.8711 97.6933 42.7422 97.7128 42.6211 97.7575C42.5 97.8022 42.3893 97.8711 42.2957 97.96C42.2021 98.0489 42.1276 98.156 42.0768 98.2746C42.0259 98.3932 41.9998 98.521 42 98.6501V130.91C42 131.082 41.9305 131.248 41.8067 131.37C41.6829 131.492 41.515 131.56 41.34 131.56L0.57 131.5C0.418826 131.5 0.273845 131.44 0.166949 131.333C0.0600535 131.226 0 131.081 0 130.93V7.44009C0 7.34947 0.0178469 7.25975 0.0525227 7.17603C0.0871984 7.09232 0.138024 7.01625 0.202096 6.95218C0.266168 6.88811 0.342233 6.83728 0.425948 6.80261C0.509663 6.76793 0.599387 6.75008 0.69 6.75008C18.6433 6.75008 36.58 6.74675 54.5 6.74008C60.12 6.73342 65.7133 7.08009 71.28 7.78009C78.52 8.69342 85.2033 10.8634 91.33 14.2901C97.6633 17.8434 102.607 22.2267 106.16 27.4401ZM66.53 43.7401C63.2367 41.4401 59.56 40.2834 55.5 40.2701C51.6667 40.2568 47.4133 40.2501 42.74 40.2501C42.5437 40.2501 42.3555 40.327 42.2167 40.4639C42.078 40.6008 42 40.7865 42 40.9801L42.06 67.1901C42.0592 67.3273 42.1097 67.46 42.2018 67.5633C42.294 67.6665 42.4215 67.733 42.56 67.7501C47.2667 68.3101 51.93 68.2734 56.55 67.6401C61.59 66.9534 65.27 65.5001 67.59 63.2801C70.83 60.1734 71.9033 55.8601 70.81 50.3401C70.2567 47.5534 68.83 45.3534 66.53 43.7401Z" fill="white"/>
<path d="M160.56 50.69L198 50.75C198.133 50.75 198.26 50.6973 198.354 50.6036C198.447 50.5098 198.5 50.3826 198.5 50.25V7.63C198.5 7.39661 198.593 7.17278 198.758 7.00775C198.923 6.84271 199.147 6.75 199.38 6.75H239.63C239.861 6.75 240.082 6.84166 240.245 7.00482C240.408 7.16797 240.5 7.38926 240.5 7.62V130.94C240.5 131.089 240.441 131.231 240.336 131.336C240.231 131.441 240.089 131.5 239.94 131.5H199.15C199.065 131.5 198.98 131.483 198.901 131.451C198.822 131.418 198.751 131.37 198.69 131.31C198.63 131.249 198.582 131.178 198.549 131.099C198.517 131.02 198.5 130.935 198.5 130.85V87.6C198.5 87.3746 198.41 87.1584 198.251 86.999C198.092 86.8396 197.875 86.75 197.65 86.75H160.81C160.595 86.75 160.389 86.8353 160.237 86.9872C160.085 87.1391 160 87.3452 160 87.56V131.05C160 131.118 159.987 131.185 159.96 131.248C159.934 131.31 159.896 131.367 159.847 131.414C159.799 131.462 159.741 131.499 159.678 131.524C159.615 131.549 159.548 131.561 159.48 131.56L118.8 131.5C118.695 131.5 118.591 131.479 118.494 131.439C118.397 131.399 118.309 131.34 118.234 131.266C118.16 131.191 118.101 131.103 118.061 131.006C118.021 130.909 118 130.805 118 130.7V7.57C118 7.35252 118.086 7.14395 118.24 6.99017C118.394 6.83639 118.603 6.75 118.82 6.75H159.2C159.412 6.75 159.616 6.83534 159.766 6.98724C159.916 7.13915 160 7.34517 160 7.56L160.06 50.2C160.06 50.33 160.113 50.4546 160.206 50.5465C160.3 50.6384 160.427 50.69 160.56 50.69Z" fill="white"/>
<path d="M356.21 33.5C353.99 47.66 352.74 61.91 352.46 76.25C344.16 87.1767 333.173 93.7633 319.5 96.01C309.653 97.6233 299.477 98.19 288.97 97.71C288.877 97.7059 288.784 97.7208 288.697 97.7537C288.61 97.7865 288.53 97.8367 288.463 97.9012C288.395 97.9657 288.342 98.0431 288.305 98.1288C288.269 98.2146 288.25 98.3068 288.25 98.4V130.98C288.25 131.118 288.195 131.25 288.098 131.348C288 131.445 287.868 131.5 287.73 131.5H246.82C246.669 131.5 246.524 131.44 246.417 131.333C246.31 131.226 246.25 131.081 246.25 130.93V7.44C246.25 7.257 246.323 7.0815 246.452 6.9521C246.581 6.8227 246.757 6.75 246.94 6.75C264.647 6.75 282.333 6.75333 300 6.76C306.113 6.76667 312.193 7.21333 318.24 8.1C326.493 9.30667 333.893 11.8767 340.44 15.81C346.7 19.5767 351.56 24.9033 355.02 31.79C355.047 31.8367 355.13 32.16 355.27 32.76C355.37 33.1667 355.683 33.4133 356.21 33.5ZM315.24 61.51C316.633 59.77 317.387 58.1 317.5 56.5C318.02 49.2667 315.577 44.4267 310.17 41.98C307.943 40.9733 304.427 40.4067 299.62 40.28C296.16 40.1867 292.57 40.1833 288.85 40.27C288.69 40.2726 288.537 40.3381 288.425 40.4522C288.313 40.5663 288.25 40.7199 288.25 40.88V67.11C288.25 67.3373 288.338 67.5556 288.495 67.7182C288.652 67.8808 288.865 67.9748 289.09 67.98C293.95 68.1 298.503 68.05 302.75 67.83C307.917 67.57 312.08 65.4633 315.24 61.51Z" fill="white"/>
<path fill-rule="evenodd" clip-rule="evenodd" d="M502.57 98.6599C503.197 98.5599 503.713 98.2066 504.12 97.5999C506.373 94.1866 508.187 90.9233 509.56 87.8099C509.993 86.8233 510.567 86.0466 511.28 85.4799C511.552 85.2662 511.739 84.9945 511.81 84.7099C512.597 81.6499 513.347 79.5999 514.06 78.5599C515.16 76.9733 517.057 73.7866 519.75 68.9999C520.61 67.4733 521.747 67.1866 523.16 68.1399C523.305 68.2375 523.46 68.3065 523.615 68.3427C523.77 68.3789 523.922 68.3813 524.06 68.3499C524.673 68.2099 525.653 67.9266 527 67.4999C528.447 67.0399 529.847 67.4066 531.2 68.5999C531.413 68.7866 531.693 68.9466 532.04 69.0799C533.087 69.4866 533.74 70.4599 534 71.9999C534.26 73.5533 534.497 75.1099 534.71 76.6699C534.917 78.2366 534.91 79.7899 534.69 81.3299C534.257 84.3299 533.7 87.3066 533.02 90.2599C532.113 94.2199 531.557 97.5966 531.35 100.39C531.097 103.93 530.877 107.47 530.69 111.01C530.523 114.177 530.943 117.213 531.95 120.12C532.477 121.627 533.457 122.023 534.89 121.31C543.503 116.983 551.103 111.36 557.69 104.44C559.15 102.907 559.793 101.34 559.62 99.7399C559.42 97.8999 559.503 95.8166 559.87 93.4899C559.93 93.0966 559.907 92.7066 559.8 92.3199C558.767 88.6266 557.497 85.3699 555.99 82.5499C555.848 82.2857 555.792 81.9837 555.832 81.6873C555.872 81.3908 556.004 81.1152 556.21 80.8999C558.023 78.9933 560.033 77.1066 562.24 75.2399C563.767 73.9466 564.853 72.3533 565.5 70.4599C568.493 61.6733 570.577 53.2699 571.75 45.2499C571.877 44.3833 572.11 43.6799 572.45 43.1399C572.631 42.8628 572.709 42.5469 572.67 42.2499C572.43 40.4966 572.867 38.8733 573.98 37.3799C574.367 36.8639 574.555 36.2285 574.51 35.5899C574.203 31.1633 575.25 27.1666 577.65 23.5999C577.762 23.4344 577.846 23.2663 577.896 23.1074C577.947 22.9484 577.961 22.8025 577.94 22.6799L577.68 21.2199C577.6 20.7866 577.593 20.4699 577.66 20.2699C578.34 18.3033 579.06 16.3499 579.82 14.4099C580.513 12.6499 581.12 10.6599 581.64 8.43993C582.267 5.79993 583.057 3.20659 584.01 0.659926C584.061 0.524891 584.155 0.410054 584.275 0.332557C584.396 0.255059 584.538 0.219057 584.68 0.229926C586.427 0.396593 588.17 0.60326 589.91 0.849927C591.45 1.06993 593.117 1.55326 594.91 2.29993C598.797 3.91326 602.697 5.19659 606.61 6.14993C606.776 6.19115 606.931 6.26587 607.067 6.36949C607.203 6.47311 607.316 6.60342 607.399 6.7524C607.482 6.90138 607.534 7.06586 607.552 7.2357C607.569 7.40555 607.551 7.57715 607.5 7.73993C606.9 9.69326 607.293 11.2666 608.68 12.4599C609.44 13.1199 609.837 13.4666 609.87 13.4999C612.11 15.9533 612.257 18.7233 610.31 21.8099C609.637 22.8766 609.053 24.1033 608.56 25.4899C607.74 27.7833 607.323 28.9433 607.31 28.9699C603.63 37.8033 598.337 45.5266 591.43 52.1399C590.87 52.6733 590.263 53.5399 589.61 54.7399C589.17 55.5599 588.593 56.2866 587.88 56.9199C587.627 57.1533 587.437 57.4199 587.31 57.7199C586.323 60.1066 584.86 62.1766 582.92 63.9299C581.28 65.4033 580.19 67.2066 579.65 69.3399C579.143 71.3199 578.593 73.2933 578 75.2599C577.967 75.3693 577.958 75.4844 577.974 75.5974C577.99 75.7105 578.031 75.8187 578.092 75.9147C578.154 76.0107 578.236 76.0921 578.332 76.1535C578.429 76.2148 578.537 76.2545 578.65 76.2699C582.003 76.6833 585.317 76.3366 588.59 75.2299C588.821 75.1534 589.075 74.9353 589.3 74.6199C589.607 74.1866 589.997 74.1766 590.47 74.5899C590.734 74.8156 591.029 74.9436 591.3 74.9499C594.947 75.0099 598.443 74.3433 601.79 72.9499C602.122 72.8132 602.453 72.7679 602.74 72.8199L606.58 73.5699C606.753 73.6043 606.913 73.6676 607.049 73.7556C607.186 73.8435 607.295 73.9541 607.37 74.0799L608.65 76.2399C608.736 76.3862 608.789 76.5493 608.807 76.7198C608.826 76.8903 608.808 77.0648 608.756 77.2332C608.704 77.4016 608.618 77.5605 608.504 77.7007C608.39 77.8409 608.249 77.9596 608.09 78.0499C606.35 79.0299 605.003 80.3866 604.05 82.1199C603.973 82.2565 603.866 82.3735 603.737 82.4619C603.609 82.5503 603.463 82.6078 603.31 82.6299C598.97 83.2166 594.727 84.2099 590.58 85.6099C588.647 86.2566 586.677 86.7533 584.67 87.0999C584.518 87.1284 584.372 87.1882 584.242 87.2758C584.111 87.3634 583.998 87.477 583.91 87.6099C583.45 88.3166 582.97 89.0066 582.47 89.6799C581.983 90.3266 581.61 91.0699 581.35 91.9099C580.777 93.7633 580.013 95.2299 579.06 96.3099C578.287 97.1899 577.75 98.0766 577.45 98.9699C577.043 100.19 576.743 100.957 576.55 101.27C576.123 101.997 575.687 102.713 575.24 103.42C573.647 105.953 573.71 108.35 575.43 110.61C575.646 110.891 575.781 111.195 575.82 111.49C576.08 113.55 575.863 115.563 575.17 117.53C575.08 117.787 575.101 118.112 575.23 118.44C575.51 119.14 575.517 120.077 575.25 121.25C574.337 125.297 574.453 129.74 575.6 134.58C576.013 136.327 576.127 137.967 575.94 139.5C574.293 152.847 573.23 163.847 572.75 172.5C572.29 180.707 571.877 186.983 571.51 191.33C571.397 192.703 571.437 194.183 571.63 195.77C571.817 197.257 571.933 198.747 571.98 200.24C571.993 200.453 571.903 200.76 571.71 201.16L570.82 202.96C570.756 203.092 570.662 203.202 570.551 203.273C570.441 203.343 570.321 203.37 570.21 203.35C566.683 202.73 564.447 202.447 563.5 202.5C562.233 202.573 561.61 202.093 561.63 201.06C561.643 200.69 561.569 200.363 561.42 200.13C560.28 198.343 558.873 196.797 557.2 195.49C557.06 195.378 556.949 195.244 556.879 195.101C556.809 194.959 556.781 194.814 556.8 194.68L557.29 190.8C557.311 190.636 557.301 190.476 557.259 190.333C557.217 190.19 557.145 190.069 557.05 189.98C555.997 189 555.673 187.833 556.08 186.48C556.18 186.147 556.193 185.827 556.12 185.52C555.833 184.26 555.833 182.997 556.12 181.73C556.155 181.582 556.158 181.426 556.129 181.273C556.099 181.12 556.039 180.972 555.95 180.84L555.01 179.43C554.935 179.316 554.905 179.176 554.923 179.033C554.941 178.889 555.007 178.751 555.11 178.64C556.283 177.367 556.477 175.923 555.69 174.31C554.883 172.677 554.54 171.01 554.66 169.31C554.733 168.283 554.77 167.74 554.77 167.68C554.903 161.22 554.813 156.243 554.5 152.75C554.133 148.603 554.42 144.843 555.36 141.47C555.447 141.157 555.457 140.84 555.39 140.52C554.77 137.533 554.993 134.63 556.06 131.81C556.407 130.897 556.137 129.303 555.25 127.03C555.23 126.978 555.198 126.931 555.155 126.895C555.141 126.883 555.125 126.872 555.109 126.862C555.077 126.843 555.043 126.83 555.006 126.822C554.977 126.815 554.947 126.813 554.917 126.814C554.89 126.816 554.864 126.82 554.838 126.827C554.783 126.842 554.732 126.871 554.69 126.91C550.87 130.437 547.787 132.697 545.44 133.69C538.6 136.577 532.973 135.077 528.56 129.19C524.027 123.137 521.453 116.663 520.84 109.77C520.78 109.057 520.587 108.24 520.26 107.32C519.88 106.233 519.793 105.377 520 104.75C520.567 103.03 520.857 101.27 520.87 99.4699C520.877 98.6433 520.987 97.1766 521.2 95.0699C521.347 93.5433 521.15 92.0433 520.61 90.5699C520.357 89.8833 520.073 89.8733 519.76 90.5399C516.893 96.5933 514.44 102.757 512.4 109.03C512.313 109.303 512.307 109.62 512.38 109.98C512.6 111.073 512.41 112.267 511.81 113.56C510.257 116.92 509.173 120.897 508.56 125.49C508.545 125.629 508.49 125.767 508.402 125.892C508.313 126.017 508.193 126.126 508.05 126.21C507.497 126.543 507.27 127.003 507.37 127.59C507.503 128.363 507.57 128.773 507.57 128.82C507.537 133.873 506.17 138.52 503.47 142.76C503.381 142.898 503.263 143.011 503.126 143.09C502.99 143.168 502.84 143.21 502.69 143.21C501.317 143.203 500.27 142.593 499.55 141.38C499.477 141.255 499.371 141.151 499.241 141.079C499.111 141.007 498.962 140.969 498.81 140.97H497.8C497.655 140.97 497.505 140.935 497.361 140.868C497.216 140.801 497.08 140.703 496.96 140.58C495.52 139.08 494.147 137.52 492.84 135.9C491.813 134.627 491.13 133.163 490.79 131.51C489.583 125.723 488.903 120.553 488.75 116C488.33 103.353 489.057 90.3433 490.93 76.9699C490.964 76.7303 491.077 76.5089 491.251 76.3405C491.425 76.1721 491.649 76.0664 491.89 76.0399C494.183 75.7933 495.96 76.4533 497.22 78.0199C498.367 79.4533 499.82 80.3899 501.58 80.8299C501.737 80.8706 501.882 80.9397 502.006 81.0326C502.13 81.1256 502.23 81.2404 502.3 81.3699C503.36 83.4233 503.763 85.6333 503.51 87.9999C503.15 91.4066 502.693 94.8033 502.14 98.1899C502.131 98.2534 502.135 98.3184 502.153 98.3797C502.172 98.4409 502.203 98.4966 502.245 98.5424C502.287 98.5882 502.338 98.6226 502.394 98.643C502.451 98.6635 502.511 98.6692 502.57 98.6599ZM585.81 44.3199C586.637 44.2599 587.17 43.8833 587.41 43.1899C587.783 42.1299 587.98 41.5799 588 41.5399C590.087 37.9399 592.333 34.4433 594.74 31.0499C595.42 30.0966 595.883 29.0033 596.13 27.7699C596.33 26.7766 596.6 25.5833 596.94 24.1899C597.42 22.2166 597.063 20.4299 595.87 18.8299C595.783 18.7033 595.657 18.4099 595.49 17.9499L593.93 13.5499C593.59 12.5833 593.21 12.6066 592.79 13.6199C589.777 20.9133 587.383 28.4199 585.61 36.1399C585.597 36.2133 585.313 37.2766 584.76 39.3299C584.267 41.1633 584.03 43.0366 584.05 44.9499C584.056 45.2848 584.17 45.5936 584.37 45.8199C585.097 46.6333 585.423 46.2966 585.35 44.8099C585.346 44.7496 585.355 44.6891 585.376 44.6319C585.397 44.5746 585.43 44.5217 585.473 44.4762C585.515 44.4307 585.567 44.3935 585.625 44.3667C585.683 44.3399 585.746 44.324 585.81 44.3199ZM352.46 76.2501C352.74 61.9101 353.99 47.6601 356.21 33.5001C357.317 27.6467 358.97 21.9667 361.17 16.4601C361.803 14.8801 362.713 13.7001 363.9 12.9201C365.78 11.6934 367.837 10.8967 370.07 10.5301C371.757 10.2567 373.223 10.5967 374.47 11.5501C376.083 12.7901 377.447 14.5034 378.56 16.6901C380.66 20.7967 382.08 24.3401 382.82 27.3201C382.892 27.6142 383.062 27.9019 383.31 28.1501C384.283 29.1501 384.367 30.2201 383.56 31.3601C383.472 31.4833 383.42 31.6261 383.407 31.7726C383.395 31.9191 383.424 32.0636 383.49 32.1901C385.59 36.1234 386.177 40.3934 385.25 45.0001C384.543 48.5334 383.743 51.6068 382.85 54.2201C382.806 54.349 382.726 54.4719 382.615 54.5805C382.505 54.6892 382.367 54.7811 382.21 54.8501C381.523 55.1634 381.223 55.6934 381.31 56.4401C381.61 58.9401 381.217 61.1768 380.13 63.1501C378.97 65.2567 377.923 67.4101 376.99 69.6101C375.383 73.4167 374.44 75.6101 374.16 76.1901C371.34 82.0567 368.223 87.7634 364.81 93.3101C363.683 95.1367 363.39 97.4267 363.93 100.18C364.163 101.353 364.723 101.54 365.61 100.74C367.903 98.6801 369.7 96.3501 371 93.7501C372.453 90.8367 374.77 87.8201 377.95 84.7001C380.663 82.0334 383.51 79.5301 386.49 77.1901C389.903 74.5167 393.127 72.5601 396.16 71.3201C400.127 69.6934 404.287 68.6967 408.64 68.3301C409.2 68.2834 409.903 68.1001 410.75 67.7801C411.55 67.4801 412.3 67.3867 413 67.5001C417.24 68.1867 420.303 69.2067 422.19 70.5601C423.937 71.8134 424.16 73.5734 422.86 75.8401C421.467 78.2534 419.68 80.0567 417.5 81.2501C416.96 81.5434 416.377 81.5567 415.75 81.2901C415.62 81.2358 415.478 81.223 415.346 81.2537C415.214 81.2844 415.099 81.357 415.02 81.4601C414.4 82.2401 413.653 82.8567 412.78 83.3101C411.293 84.0834 410.52 84.4901 410.46 84.5301C409.013 85.4701 407.567 86.4134 406.12 87.3601C405.807 87.5667 404.31 88.3234 401.63 89.6301C400.463 90.1967 399.41 90.9334 398.47 91.8401C397.263 93.0067 396.627 93.6201 396.56 93.6801C393.653 96.2667 390.53 99.6867 387.19 103.94C385.53 106.04 384.78 108.19 384.94 110.39C385.047 111.877 385.703 113.91 386.91 116.49C389.423 121.85 393.767 125.623 399.94 127.81C403.04 128.91 405.85 128.9 408.37 127.78C413.257 125.607 418.237 122.033 423.31 117.06C426.323 114.107 428.373 111.89 429.46 110.41C429.635 110.169 429.733 109.854 429.74 109.51L429.97 101C429.977 100.74 429.93 100.417 429.83 100.03C429.623 99.2567 429.66 98.1434 429.94 96.6901C430.753 92.3901 431.593 88.0967 432.46 83.8101C432.513 83.5567 432.66 83.2667 432.9 82.9401L438.31 75.7301C438.517 75.4567 438.74 75.2301 438.98 75.0501C439.653 74.5701 440.013 73.9067 440.06 73.0601C440.072 72.9008 440.116 72.7484 440.189 72.6136C440.262 72.4788 440.361 72.3649 440.48 72.2801C443.12 70.4067 444.857 67.8734 445.69 64.6801C445.76 64.413 445.899 64.1694 446.092 63.9744C446.285 63.7794 446.526 63.6398 446.79 63.5701C451.583 62.2767 456.007 62.9834 460.06 65.6901C463.14 67.7434 465.983 70.0834 468.59 72.7101C468.812 72.9321 468.971 73.2193 469.05 73.5401C469.47 75.1934 469.973 76.3267 470.56 76.9401C474.853 81.3734 477.98 86.0801 479.94 91.0601C481.167 94.1934 481.447 97.4667 480.78 100.88C480.18 103.947 479.813 106.017 479.68 107.09C479.027 112.377 477.32 116.95 474.56 120.81C469.7 127.623 466.367 131.79 464.56 133.31C460.96 136.343 457.44 138.407 454 139.5C451.087 140.427 447.957 140.177 444.61 138.75C438.77 136.27 434.943 131.893 433.13 125.62C433.088 125.47 433.008 125.333 432.896 125.225C432.785 125.116 432.646 125.038 432.494 125C432.342 124.961 432.183 124.963 432.031 125.005C431.879 125.048 431.741 125.129 431.63 125.24C428.317 128.613 424.693 131.617 420.76 134.25C417.96 136.123 415.333 137.297 412.88 137.77C410.92 138.143 408.937 138.263 406.93 138.13C405.17 138.01 403.26 137.567 401.2 136.8C394.013 134.113 387.777 129.933 382.49 124.26C379.583 121.147 376.697 118.013 373.83 114.86C373.793 114.821 373.747 114.791 373.695 114.774C373.644 114.757 373.589 114.752 373.536 114.761C373.517 114.765 373.498 114.77 373.479 114.776C373.447 114.788 373.417 114.804 373.39 114.825C373.347 114.858 373.312 114.901 373.29 114.95C371.543 118.683 370.037 122.51 368.77 126.43C367.957 128.95 367.137 130.66 366.31 131.56C365.557 132.387 365.123 133.35 365.01 134.45C364.985 134.673 364.904 134.886 364.776 135.07C364.647 135.253 364.474 135.402 364.273 135.501C364.072 135.601 363.849 135.648 363.625 135.639C363.401 135.63 363.182 135.565 362.99 135.45C360.177 133.743 358.013 131.61 356.5 129.05C355.4 127.197 354.657 124.377 354.27 120.59C352.743 105.85 352.14 91.0701 352.46 76.2501ZM367.13 40.1801C365.49 52.7534 364.677 65.4634 364.69 78.3101C364.69 78.7767 364.81 78.8101 365.05 78.4101C369.15 71.7567 372.517 64.7134 375.15 57.2801C375.243 57.0134 375.423 56.7501 375.69 56.4901C376.25 55.9501 376.59 55.2834 376.71 54.4901C377.223 51.1301 377.793 47.7767 378.42 44.4301C378.96 41.5301 378.717 38.7101 377.69 35.9701C377.593 35.7313 377.59 35.3974 377.68 35.0301C377.747 34.7301 377.727 34.4434 377.62 34.1701C376.133 30.4367 373.983 27.1467 371.17 24.3001C370.483 23.6067 370.037 23.7367 369.83 24.6901C368.73 29.6434 367.83 34.8067 367.13 40.1801ZM392.51 82.4901C391.917 83.2434 391.343 84.0301 390.79 84.8501C390.357 85.4901 390.497 85.6601 391.21 85.3601C395.003 83.7667 398.62 81.9167 402.06 79.8101C405.667 77.6101 408.28 75.4134 409.9 73.2201C410.1 72.9467 410.033 72.8301 409.7 72.8701C402.64 73.7101 396.91 76.9167 392.51 82.4901ZM456.88 79.3301C455.227 82.4301 453.73 85.5367 452.39 88.6501C450.67 92.6167 449.357 95.8034 448.45 98.2101C445.71 105.45 443.893 113.463 443 122.25C442.767 124.517 443.297 126.17 444.59 127.21C444.707 127.302 444.849 127.363 445.004 127.388C445.159 127.412 445.323 127.399 445.48 127.35C448.133 126.49 450.507 125.2 452.6 123.48C454.373 122.027 456.277 120.173 458.31 117.92C461.377 114.533 463.587 110.457 464.94 105.69C465.38 104.13 465.463 102.67 465.19 101.31C464.71 98.8967 464.463 97.6134 464.45 97.4601C464.257 94.5001 463.96 92.5767 463.56 91.6901C462.64 89.6367 461.957 87.5067 461.51 85.3001C460.983 82.7601 460.04 80.7034 458.68 79.1301C458.563 78.9955 458.416 78.8912 458.25 78.8263C458.084 78.7614 457.905 78.7378 457.727 78.7575C457.55 78.7772 457.381 78.8396 457.233 78.9393C457.086 79.039 456.964 79.1731 456.88 79.3301ZM620.113 119.94C620.004 120.07 619.927 120.224 619.89 120.39C619.603 121.717 619.867 122.84 620.68 123.76C621.339 124.516 621.759 125.452 621.89 126.45C622.25 129.143 622.82 131.647 623.6 133.96C624.373 136.253 625.667 138.23 627.48 139.89C628.88 141.17 630.38 142.327 631.98 143.36C632.647 143.793 633.61 144.15 634.87 144.43C635.943 144.663 636.933 145.04 637.84 145.56C637.894 145.59 637.954 145.606 638.016 145.607C638.078 145.608 638.138 145.595 638.194 145.567C638.249 145.54 638.296 145.499 638.332 145.449C638.368 145.399 638.391 145.341 638.4 145.28C638.693 142.94 639.677 141.423 641.35 140.73C641.688 140.587 641.957 140.391 642.12 140.17C643.04 138.89 643.363 137.413 643.09 135.74C643.045 135.445 642.869 135.165 642.6 134.96C641.447 134.067 640.587 132.97 640.02 131.67C639.14 129.657 638.567 128.513 638.3 128.24C637.487 127.407 636.387 126.66 635 126C633.12 125.113 631.723 124.01 630.81 122.69C629.93 121.417 628.893 121.03 627.7 121.53C627.34 121.677 627.027 121.733 626.76 121.7C624.86 121.46 623.103 120.807 621.49 119.74C621.348 119.647 621.185 119.59 621.016 119.573C620.847 119.557 620.677 119.582 620.52 119.646C620.362 119.709 620.223 119.811 620.113 119.94Z" fill="white"/>
</g>
<defs>
<clipPath id="clip0_102_63">
<rect width="644" height="204" fill="white"/>
</clipPath>
</defs>
</svg>
