<svg width="110" height="35" viewBox="0 0 110 35" fill="none" xmlns="http://www.w3.org/2000/svg">
<g clip-path="url(#clip0_102_99)">
<path d="M61.099 5.69507C60.7198 8.1137 60.5063 10.5477 60.4585 12.9971" stroke="white" stroke-width="0.341615"/>
<path d="M18.3888 4.66C18.9046 5.41838 19.2428 6.25876 19.4034 7.18112C19.5503 8.01921 19.5753 8.90912 19.4785 9.85084C19.2724 11.8459 18.37 13.4606 16.7712 14.6949C16.0914 15.2187 15.2892 15.6412 14.3646 15.9623C13.6312 16.2163 12.7538 16.4024 11.7324 16.5209C10.4024 16.6746 9.02511 16.7213 7.60058 16.6609C7.57856 16.6598 7.55654 16.6631 7.53586 16.6707C7.51517 16.6784 7.49626 16.6901 7.48028 16.7053C7.46429 16.7205 7.45157 16.7388 7.44289 16.7591C7.4342 16.7793 7.42974 16.8011 7.42977 16.8232V22.3334C7.42977 22.3629 7.41789 22.3911 7.39675 22.412C7.37561 22.4328 7.34694 22.4445 7.31704 22.4445L0.35322 22.4342C0.327398 22.4342 0.302634 22.424 0.284376 22.4057C0.266117 22.3874 0.255859 22.3627 0.255859 22.3369V1.24385C0.255859 1.22837 0.258908 1.21305 0.264831 1.19875C0.270754 1.18445 0.279435 1.17146 0.290379 1.16051C0.301323 1.14957 0.314315 1.14089 0.328614 1.13496C0.342914 1.12904 0.358239 1.12599 0.373716 1.12599C3.44028 1.12599 6.504 1.12542 9.56487 1.12428C10.5248 1.12314 11.4802 1.18236 12.431 1.30192C13.6677 1.45793 14.8092 1.82858 15.8557 2.41388C16.9375 3.02082 17.7818 3.76952 18.3888 4.66ZM11.6197 7.44416C11.0572 7.0513 10.4292 6.85373 9.73567 6.85146C9.08091 6.84918 8.35441 6.84804 7.55617 6.84804C7.52265 6.84804 7.4905 6.86118 7.46679 6.88456C7.44309 6.90795 7.42977 6.93966 7.42977 6.97273L7.44002 11.4496C7.43989 11.473 7.44851 11.4957 7.46425 11.5133C7.47999 11.531 7.50176 11.5423 7.52542 11.5452C8.32936 11.6409 9.12589 11.6346 9.91502 11.5265C10.7759 11.4092 11.4045 11.1609 11.8007 10.7817C12.3541 10.2511 12.5375 9.51435 12.3507 8.57149C12.2562 8.09551 12.0125 7.71973 11.6197 7.44416Z" fill="white"/>
<path d="M27.6807 8.63126L34.0757 8.6415C34.0984 8.6415 34.1201 8.63251 34.1361 8.61649C34.1521 8.60047 34.1611 8.57875 34.1611 8.5561V1.27629C34.1611 1.23642 34.177 1.19819 34.2052 1.17C34.2333 1.14181 34.2716 1.12598 34.3114 1.12598H41.1864C41.2259 1.12598 41.2637 1.14163 41.2915 1.1695C41.3194 1.19737 41.335 1.23517 41.335 1.27458V22.3386C41.335 22.3639 41.325 22.3883 41.307 22.4062C41.2891 22.4241 41.2648 22.4342 41.2394 22.4342H34.2722C34.2576 22.4342 34.2431 22.4313 34.2297 22.4258C34.2162 22.4202 34.204 22.412 34.1937 22.4017C34.1833 22.3914 34.1752 22.3791 34.1696 22.3657C34.164 22.3522 34.1611 22.3378 34.1611 22.3232V14.9358C34.1611 14.8973 34.1458 14.8603 34.1186 14.8331C34.0914 14.8059 34.0545 14.7906 34.0159 14.7906H27.7234C27.6867 14.7906 27.6515 14.8051 27.6256 14.8311C27.5996 14.857 27.585 14.8922 27.585 14.9289V22.3573C27.585 22.3689 27.5827 22.3804 27.5783 22.3911C27.5738 22.4018 27.5672 22.4114 27.5589 22.4195C27.5507 22.4277 27.5409 22.434 27.5301 22.4383C27.5193 22.4426 27.5078 22.4447 27.4962 22.4445L20.5478 22.4342C20.5298 22.4342 20.5121 22.4307 20.4955 22.4238C20.4789 22.4169 20.4638 22.4069 20.4512 22.3942C20.4385 22.3815 20.4284 22.3664 20.4215 22.3499C20.4147 22.3333 20.4111 22.3155 20.4111 22.2976V1.26604C20.4111 1.22889 20.4259 1.19327 20.4522 1.167C20.4784 1.14073 20.514 1.12598 20.5512 1.12598H27.4484C27.4846 1.12598 27.5194 1.14055 27.545 1.1665C27.5706 1.19245 27.585 1.22764 27.585 1.26433L27.5953 8.54756C27.5953 8.56976 27.6043 8.59105 27.6203 8.60674C27.6363 8.62244 27.658 8.63126 27.6807 8.63126Z" fill="white"/>
<path d="M61.0991 5.69508C60.7199 8.11371 60.5064 10.5477 60.4586 12.9971C59.0409 14.8635 57.1643 15.9885 54.8288 16.3722C53.1469 16.6478 51.4087 16.7446 49.614 16.6626C49.5981 16.6619 49.5823 16.6645 49.5674 16.6701C49.5525 16.6757 49.5389 16.6843 49.5274 16.6953C49.5159 16.7063 49.5067 16.7195 49.5005 16.7342C49.4942 16.7488 49.491 16.7646 49.4911 16.7805V22.3454C49.4911 22.3689 49.4817 22.3915 49.465 22.4082C49.4484 22.4248 49.4258 22.4342 49.4022 22.4342H42.4145C42.3887 22.4342 42.3639 22.4239 42.3457 22.4057C42.3274 22.3874 42.3171 22.3627 42.3171 22.3368V1.24383C42.3171 1.21258 42.3296 1.1826 42.3517 1.1605C42.3738 1.13839 42.4037 1.12598 42.435 1.12598C45.4594 1.12598 48.4804 1.12655 51.498 1.12768C52.5422 1.12882 53.5808 1.20512 54.6136 1.35657C56.0233 1.56267 57.2873 2.00165 58.4055 2.67349C59.4747 3.31687 60.3049 4.2267 60.8959 5.403C60.9004 5.41097 60.9147 5.46619 60.9386 5.56868C60.9556 5.63814 61.0092 5.68027 61.0991 5.69508ZM54.1011 10.4794C54.3391 10.1822 54.4678 9.89694 54.4872 9.62365C54.576 8.38814 54.1587 7.56143 53.2352 7.14352C52.8548 6.97158 52.2541 6.87479 51.4331 6.85315C50.8421 6.83721 50.2289 6.83664 49.5935 6.85144C49.5662 6.85189 49.5401 6.86307 49.521 6.88256C49.5018 6.90205 49.491 6.92829 49.4911 6.95564V11.4359C49.491 11.4747 49.506 11.512 49.5328 11.5398C49.5597 11.5676 49.5962 11.5836 49.6345 11.5845C50.4647 11.605 51.2424 11.5965 51.9678 11.5589C52.8503 11.5145 53.5614 11.1547 54.1011 10.4794Z" fill="white"/>
<path fill-rule="evenodd" clip-rule="evenodd" d="M86.0985 16.8249C86.2055 16.8078 86.2937 16.7474 86.3632 16.6438C86.7481 16.0608 87.0578 15.5034 87.2924 14.9716C87.3664 14.8031 87.4643 14.6704 87.5862 14.5736C87.6326 14.5371 87.6646 14.4907 87.6767 14.4421C87.8111 13.9194 87.9392 13.5693 88.061 13.3916C88.2489 13.1206 88.5729 12.5763 89.0329 11.7587C89.1798 11.4979 89.374 11.449 89.6154 11.6118C89.6402 11.6285 89.6666 11.6403 89.6931 11.6465C89.7196 11.6526 89.7455 11.6531 89.7691 11.6477C89.8739 11.6238 90.0413 11.5754 90.2713 11.5025C90.5184 11.4239 90.7575 11.4866 90.9887 11.6904C91.0251 11.7223 91.0729 11.7496 91.1321 11.7724C91.3109 11.8418 91.4225 12.0081 91.4669 12.2711C91.5113 12.5365 91.5518 12.8023 91.5882 13.0688C91.6235 13.3364 91.6224 13.6017 91.5848 13.8648C91.5108 14.3772 91.4157 14.8856 91.2995 15.3901C91.1447 16.0665 91.0496 16.6432 91.0143 17.1204C90.971 17.725 90.9334 18.3297 90.9016 18.9343C90.8731 19.4752 90.9448 19.9939 91.1168 20.4904C91.2067 20.7477 91.3741 20.8155 91.619 20.6937C93.0902 19.9546 94.3883 18.9941 95.5134 17.8121C95.7627 17.5502 95.8726 17.2826 95.843 17.0093C95.8089 16.6951 95.8231 16.3392 95.8857 15.9418C95.896 15.8746 95.892 15.808 95.8738 15.7419C95.6973 15.1111 95.4803 14.5548 95.223 14.0732C95.1987 14.028 95.1892 13.9764 95.196 13.9258C95.2027 13.8752 95.2254 13.8281 95.2606 13.7913C95.5703 13.4657 95.9136 13.1434 96.2905 12.8246C96.5513 12.6036 96.7369 12.3315 96.8474 12.0081C97.3587 10.5073 97.7145 9.07192 97.9149 7.70204C97.9365 7.55401 97.9764 7.43387 98.0345 7.34164C98.0653 7.2943 98.0787 7.24033 98.0721 7.18962C98.0311 6.89013 98.1056 6.61286 98.2958 6.35778C98.3618 6.26964 98.394 6.16111 98.3863 6.05204C98.334 5.29593 98.5127 4.61327 98.9227 4.00406C98.9419 3.97579 98.9562 3.94708 98.9648 3.91993C98.9733 3.89278 98.9759 3.86786 98.9722 3.84691L98.9278 3.59754C98.9141 3.52352 98.913 3.46943 98.9244 3.43527C99.0405 3.09935 99.1635 2.7657 99.2933 2.43434C99.4118 2.13372 99.5154 1.79381 99.6042 1.41462C99.7112 0.963685 99.8462 0.520724 100.009 0.0857345C100.018 0.0626694 100.034 0.0430544 100.054 0.0298173C100.075 0.0165802 100.099 0.0104307 100.123 0.0122872C100.422 0.0407551 100.72 0.0760555 101.017 0.118188C101.28 0.155766 101.564 0.238323 101.871 0.365859C102.535 0.641428 103.201 0.860631 103.869 1.02347C103.898 1.03051 103.924 1.04327 103.947 1.06097C103.97 1.07867 103.99 1.10093 104.004 1.12637C104.018 1.15182 104.027 1.17992 104.03 1.20893C104.033 1.23794 104.03 1.26725 104.021 1.29505C103.919 1.6287 103.986 1.89743 104.223 2.10126C104.353 2.214 104.42 2.27321 104.426 2.2789C104.809 2.69795 104.834 3.17109 104.501 3.69831C104.386 3.88051 104.287 4.09003 104.202 4.32688C104.062 4.7186 103.991 4.91674 103.989 4.92129C103.36 6.43009 102.456 7.7493 101.276 8.8789C101.181 8.97 101.077 9.11803 100.966 9.323C100.89 9.46306 100.792 9.58718 100.67 9.69536C100.627 9.73522 100.594 9.78077 100.573 9.83201C100.404 10.2397 100.154 10.5932 99.8228 10.8927C99.5427 11.1444 99.3565 11.4524 99.2643 11.8168C99.1778 12.155 99.0838 12.4921 98.9825 12.828C98.9768 12.8466 98.9754 12.8663 98.9781 12.8856C98.9808 12.9049 98.9877 12.9234 98.9982 12.9398C99.0088 12.9562 99.0228 12.9701 99.0392 12.9806C99.0556 12.9911 99.0742 12.9979 99.0935 13.0005C99.6663 13.0711 100.232 13.0119 100.791 12.8228C100.831 12.8098 100.874 12.7725 100.913 12.7187C100.965 12.6446 101.032 12.6429 101.112 12.7135C101.157 12.7521 101.208 12.7739 101.254 12.775C101.877 12.7853 102.474 12.6714 103.046 12.4334C103.103 12.4101 103.159 12.4023 103.208 12.4112L103.864 12.5393C103.894 12.5452 103.921 12.556 103.944 12.571C103.968 12.586 103.986 12.6049 103.999 12.6264L104.218 12.9954C104.232 13.0203 104.241 13.0482 104.245 13.0773C104.248 13.1065 104.245 13.1363 104.236 13.165C104.227 13.1938 104.212 13.2209 104.193 13.2449C104.173 13.2688 104.149 13.2891 104.122 13.3045C103.825 13.4719 103.595 13.7036 103.432 13.9997C103.419 14.023 103.401 14.043 103.379 14.0581C103.357 14.0732 103.332 14.083 103.306 14.0868C102.564 14.187 101.84 14.3567 101.131 14.5958C100.801 14.7063 100.464 14.7911 100.122 14.8503C100.096 14.8552 100.071 14.8654 100.049 14.8804C100.026 14.8953 100.007 14.9147 99.9919 14.9374C99.9134 15.0581 99.8314 15.176 99.746 15.291C99.6628 15.4015 99.5991 15.5284 99.5547 15.6719C99.4567 15.9885 99.3264 16.239 99.1635 16.4235C99.0314 16.5738 98.9398 16.7252 98.8885 16.8778C98.8191 17.0862 98.7678 17.2172 98.7348 17.2707C98.6619 17.3948 98.5873 17.5172 98.511 17.6379C98.2389 18.0706 98.2497 18.48 98.5435 18.866C98.5803 18.914 98.6034 18.966 98.6101 19.0163C98.6545 19.3682 98.6175 19.7121 98.4991 20.048C98.4837 20.0919 98.4873 20.1474 98.5093 20.2034C98.5571 20.323 98.5583 20.483 98.5127 20.6834C98.3567 21.3746 98.3767 22.1336 98.5725 22.9603C98.6431 23.2586 98.6625 23.5387 98.6306 23.8006C98.3493 26.0804 98.1677 27.9592 98.0857 29.4373C98.0071 30.839 97.9366 31.9111 97.8739 32.6536C97.8546 32.8882 97.8614 33.141 97.8944 33.412C97.9263 33.6659 97.9462 33.9204 97.9542 34.1755C97.9565 34.2119 97.9411 34.2643 97.9081 34.3326L97.7561 34.6401C97.7451 34.6627 97.729 34.6815 97.7102 34.6935C97.6913 34.7056 97.6708 34.7102 97.6519 34.7067C97.0495 34.6008 96.6674 34.5524 96.5057 34.5615C96.2894 34.574 96.1829 34.4921 96.1863 34.3155C96.1885 34.2524 96.1759 34.1965 96.1505 34.1567C95.9557 33.8515 95.7155 33.5873 95.4297 33.3642C95.4058 33.345 95.3868 33.3221 95.3748 33.2978C95.3628 33.2735 95.3582 33.2486 95.3613 33.2258L95.445 32.5631C95.4487 32.5351 95.4469 32.5077 95.4397 32.4833C95.4326 32.4589 95.4203 32.4382 95.404 32.423C95.2241 32.2556 95.1689 32.0563 95.2384 31.8252C95.2554 31.7682 95.2577 31.7136 95.2452 31.6612C95.1962 31.446 95.1962 31.2302 95.2452 31.0138C95.2511 30.9885 95.2516 30.9619 95.2467 30.9358C95.2417 30.9096 95.2313 30.8845 95.2162 30.8618L95.0556 30.621C95.0428 30.6015 95.0376 30.5776 95.0407 30.5531C95.0438 30.5286 95.055 30.505 95.0727 30.486C95.2731 30.2686 95.3061 30.022 95.1717 29.7465C95.034 29.4675 94.9753 29.1828 94.9958 28.8924C95.0083 28.7171 95.0146 28.6242 95.0146 28.614C95.0374 27.5106 95.022 26.6605 94.9685 26.0638C94.9059 25.3556 94.9548 24.7133 95.1154 24.1371C95.1302 24.0836 95.1319 24.0295 95.1205 23.9749C95.0146 23.4647 95.0527 22.9688 95.2349 22.4871C95.2942 22.3311 95.248 22.059 95.0966 21.6707C95.0932 21.6618 95.0877 21.6538 95.0804 21.6476C95.0732 21.6414 95.0644 21.6371 95.055 21.6351C95.0455 21.6331 95.0356 21.6334 95.0262 21.636C95.0168 21.6387 95.0081 21.6435 95.0009 21.6502C94.3485 22.2526 93.8218 22.6386 93.421 22.8083C92.2526 23.3013 91.2916 23.0451 90.5377 22.0396C89.7634 21.0057 89.3239 19.9 89.2191 18.7225C89.2089 18.6007 89.1758 18.4612 89.12 18.3041C89.0551 18.1184 89.0403 17.9721 89.0756 17.8651C89.1724 17.5713 89.222 17.2707 89.2242 16.9632C89.2254 16.822 89.2442 16.5715 89.2806 16.2117C89.3056 15.9509 89.2721 15.6947 89.1798 15.443C89.1365 15.3257 89.0882 15.324 89.0346 15.4379C88.545 16.4719 88.1259 17.5246 87.7775 18.5961C87.7627 18.6428 87.7615 18.6969 87.7741 18.7584C87.8117 18.9452 87.7792 19.149 87.6767 19.3699C87.4114 19.9438 87.2264 20.6231 87.1216 21.4076C87.119 21.4314 87.1097 21.455 87.0946 21.4763C87.0794 21.4977 87.0588 21.5163 87.0345 21.5306C86.94 21.5875 86.9012 21.6661 86.9183 21.7663C86.9411 21.8984 86.9525 21.9684 86.9525 21.9764C86.9468 22.8396 86.7134 23.6332 86.2522 24.3575C86.2369 24.381 86.2168 24.4004 86.1935 24.4138C86.1702 24.4272 86.1446 24.4343 86.1189 24.4343C85.8844 24.4332 85.7056 24.329 85.5826 24.1218C85.5702 24.1004 85.552 24.0827 85.5298 24.0704C85.5076 24.0581 85.4822 24.0517 85.4562 24.0517H85.2837C85.2589 24.0517 85.2333 24.0458 85.2087 24.0343C85.184 24.0229 85.1607 24.0061 85.1402 23.9851C84.8943 23.7289 84.6597 23.4624 84.4365 23.1857C84.2611 22.9682 84.1444 22.7183 84.0863 22.4359C83.8802 21.4475 83.7641 20.5644 83.7379 19.7867C83.6662 17.6265 83.7903 15.4043 84.1103 13.1201C84.1161 13.0791 84.1353 13.0413 84.165 13.0125C84.1947 12.9838 84.2331 12.9657 84.2742 12.9612C84.6659 12.9191 84.9694 13.0318 85.1846 13.2994C85.3805 13.5442 85.6287 13.7042 85.9294 13.7794C85.9562 13.7863 85.981 13.7981 86.0022 13.814C86.0233 13.8299 86.0404 13.8495 86.0523 13.8716C86.2334 14.2223 86.3023 14.5998 86.259 15.0041C86.1975 15.5859 86.1195 16.1661 86.025 16.7446C86.0234 16.7554 86.0242 16.7665 86.0273 16.777C86.0304 16.7875 86.0357 16.797 86.0429 16.8048C86.05 16.8126 86.0588 16.8185 86.0684 16.822C86.0781 16.8255 86.0884 16.8265 86.0985 16.8249ZM100.316 7.54319C100.458 7.53294 100.549 7.4686 100.59 7.35018C100.654 7.16912 100.687 7.07518 100.691 7.06834C101.047 6.45344 101.431 5.85618 101.842 5.27657C101.958 5.11374 102.037 4.92699 102.079 4.71632C102.113 4.54666 102.159 4.34283 102.218 4.10483C102.3 3.76777 102.239 3.4626 102.035 3.18931C102.02 3.16767 101.998 3.11757 101.97 3.039L101.703 2.28744C101.645 2.12233 101.58 2.12631 101.509 2.2994C100.994 3.54516 100.585 4.82735 100.282 6.14598C100.28 6.15851 100.232 6.34013 100.137 6.69086C100.053 7.00401 100.012 7.32399 100.016 7.6508C100.017 7.708 100.036 7.76074 100.07 7.7994C100.195 7.93832 100.25 7.88082 100.238 7.62688C100.237 7.61659 100.239 7.60625 100.242 7.59647C100.246 7.58669 100.252 7.57766 100.259 7.56989C100.266 7.56212 100.275 7.55576 100.285 7.55118C100.295 7.5466 100.305 7.54388 100.316 7.54319ZM60.4585 12.9971C60.5064 10.5477 60.7199 8.11371 61.0991 5.69508C61.2881 4.69528 61.5705 3.7251 61.9463 2.78452C62.0545 2.51464 62.2099 2.31309 62.4126 2.17986C62.7337 1.97034 63.085 1.83426 63.4665 1.77163C63.7546 1.72494 64.0051 1.78302 64.218 1.94585C64.4936 2.15766 64.7265 2.45031 64.9166 2.8238C65.2753 3.52525 65.5179 4.13048 65.6443 4.63949C65.6566 4.68973 65.6856 4.73887 65.728 4.78126C65.8942 4.95206 65.9084 5.13483 65.7707 5.32955C65.7557 5.35059 65.7467 5.37498 65.7446 5.40001C65.7425 5.42503 65.7473 5.44972 65.7587 5.47132C66.1174 6.14316 66.2176 6.87251 66.0593 7.65936C65.9386 8.26288 65.802 8.78783 65.6494 9.23421C65.6418 9.25623 65.6282 9.27722 65.6093 9.29578C65.5905 9.31433 65.5669 9.33003 65.5401 9.34182C65.4228 9.39534 65.3715 9.48586 65.3863 9.6134C65.4376 10.0404 65.3704 10.4225 65.1848 10.7595C64.9867 11.1194 64.8079 11.4872 64.6484 11.8629C64.374 12.5131 64.2129 12.8878 64.1651 12.9868C63.6834 13.9889 63.151 14.9637 62.568 15.9111C62.3756 16.2231 62.3255 16.6142 62.4177 17.0845C62.4576 17.2849 62.5532 17.3168 62.7047 17.1802C63.0964 16.8283 63.4033 16.4303 63.6253 15.9862C63.8736 15.4886 64.2693 14.9733 64.8124 14.4404C65.2759 13.9849 65.7621 13.5573 66.2711 13.1577C66.8541 12.701 67.4047 12.3668 67.9228 12.155C68.6004 11.8772 69.3109 11.7069 70.0545 11.6443C70.1502 11.6363 70.2703 11.605 70.4149 11.5504C70.5516 11.4991 70.6797 11.4832 70.7992 11.5025C71.5235 11.6198 72.0467 11.794 72.3689 12.0252C72.6673 12.2393 72.7054 12.5399 72.4834 12.9271C72.2454 13.3393 71.9402 13.6473 71.5679 13.8511C71.4756 13.9012 71.376 13.9035 71.2689 13.858C71.2468 13.8487 71.2225 13.8465 71.2 13.8518C71.1774 13.857 71.1578 13.8694 71.1443 13.887C71.0384 14.0202 70.9108 14.1256 70.7616 14.203C70.5077 14.3351 70.3756 14.4045 70.3654 14.4114C70.1183 14.5719 69.8712 14.7331 69.6241 14.8948C69.5706 14.9301 69.3149 15.0593 68.8571 15.2825C68.6579 15.3793 68.478 15.5051 68.3174 15.66C68.1113 15.8593 68.0025 15.964 67.9912 15.9743C67.4947 16.4161 66.9612 17.0003 66.3907 17.7268C66.1071 18.0854 65.979 18.4527 66.0064 18.8285C66.0246 19.0824 66.1368 19.4297 66.3429 19.8704C66.7722 20.7859 67.514 21.4304 68.5685 21.8039C69.098 21.9918 69.578 21.9901 70.0084 21.7988C70.8431 21.4276 71.6937 20.8172 72.5603 19.9677C73.075 19.4633 73.4251 19.0847 73.6107 18.8319C73.6407 18.7908 73.6574 18.737 73.6585 18.6782L73.6978 17.2246C73.699 17.1802 73.691 17.1249 73.6739 17.0589C73.6386 16.9268 73.6449 16.7366 73.6927 16.4884C73.8316 15.7539 73.9751 15.0206 74.1231 14.2884C74.1322 14.2451 74.1573 14.1956 74.1983 14.1398L75.1224 12.9083C75.1577 12.8616 75.1958 12.8229 75.2368 12.7921C75.3518 12.7101 75.4133 12.5968 75.4213 12.4522C75.4234 12.425 75.4309 12.399 75.4433 12.376C75.4557 12.3529 75.4727 12.3335 75.493 12.319C75.9439 11.999 76.2406 11.5663 76.3829 11.0209C76.3949 10.9752 76.4185 10.9336 76.4516 10.9003C76.4846 10.867 76.5257 10.8432 76.5708 10.8313C77.3896 10.6103 78.1451 10.7311 78.8374 11.1934C79.3635 11.5441 79.8492 11.9438 80.2944 12.3924C80.3324 12.4304 80.3595 12.4794 80.373 12.5342C80.4447 12.8166 80.5307 13.0102 80.6309 13.115C81.3642 13.8722 81.8983 14.6761 82.2331 15.5268C82.4426 16.062 82.4904 16.6211 82.3766 17.2041C82.2741 17.7279 82.2114 18.0815 82.1887 18.2648C82.0771 19.1678 81.7856 19.949 81.3141 20.6083C80.484 21.772 79.9147 22.4837 79.6061 22.7434C78.9912 23.2615 78.3899 23.6139 77.8023 23.8007C77.3047 23.9589 76.7701 23.9162 76.1984 23.6726C75.2009 23.249 74.5473 22.5014 74.2376 21.4299C74.2305 21.4042 74.2167 21.3809 74.1976 21.3623C74.1786 21.3437 74.1549 21.3305 74.129 21.3239C74.103 21.3173 74.0758 21.3177 74.0499 21.3249C74.024 21.3321 74.0003 21.3459 73.9814 21.365C73.4154 21.9411 72.7965 22.4541 72.1247 22.9039C71.6464 23.2239 71.1978 23.4243 70.7787 23.5052C70.4439 23.5689 70.1052 23.5894 69.7624 23.5667C69.4618 23.5462 69.1356 23.4704 68.7837 23.3395C67.5562 22.8806 66.4909 22.1666 65.5879 21.1976C65.0914 20.6658 64.5983 20.1306 64.1087 19.592C64.1024 19.5853 64.0945 19.5802 64.0857 19.5773C64.0769 19.5743 64.0676 19.5736 64.0585 19.5751C64.0494 19.5766 64.0408 19.5804 64.0335 19.586C64.0261 19.5916 64.0203 19.5989 64.0165 19.6073C63.7181 20.245 63.4608 20.8986 63.2444 21.5682C63.1055 21.9986 62.9654 22.2907 62.8242 22.4445C62.6956 22.5857 62.6215 22.7502 62.6022 22.9381C62.5979 22.9762 62.5841 23.0126 62.5621 23.0439C62.5401 23.0753 62.5106 23.1006 62.4763 23.1176C62.4419 23.1346 62.4039 23.1428 62.3656 23.1412C62.3273 23.1397 62.29 23.1286 62.2571 23.1089C61.7766 22.8174 61.4071 22.453 61.1486 22.0157C60.9607 21.6992 60.8337 21.2175 60.7677 20.5707C60.5069 18.053 60.4039 15.5285 60.4585 12.9971ZM62.9643 6.83607C62.6842 8.98369 62.5452 11.1547 62.5475 13.349C62.5475 13.4287 62.568 13.4344 62.609 13.366C63.3093 12.2296 63.8844 11.0265 64.3342 9.75688C64.3501 9.71133 64.3809 9.66635 64.4264 9.62194C64.5221 9.5297 64.5801 9.41583 64.6006 9.28033C64.6883 8.70641 64.7857 8.13364 64.8927 7.562C64.9849 7.06666 64.9434 6.58498 64.768 6.11697C64.7515 6.07619 64.7509 6.01915 64.7663 5.95641C64.7777 5.90517 64.7743 5.85621 64.7561 5.80952C64.5021 5.17184 64.1349 4.60988 63.6544 4.12365C63.5371 4.00522 63.4608 4.02743 63.4255 4.19026C63.2376 5.03633 63.0839 5.91827 62.9643 6.83607ZM67.2994 14.0629C67.198 14.1916 67.1001 14.326 67.0056 14.466C66.9316 14.5754 66.9555 14.6044 67.0773 14.5532C67.7253 14.281 68.343 13.965 68.9306 13.6052C69.5466 13.2294 69.993 12.8542 70.2697 12.4795C70.3039 12.4329 70.2925 12.4129 70.2356 12.4198C69.0297 12.5632 68.0509 13.111 67.2994 14.0629ZM78.2943 13.5232C78.0119 14.0527 77.7562 14.5833 77.5273 15.1151C77.2335 15.7926 77.0092 16.337 76.8544 16.748C76.3863 17.9847 76.076 19.3534 75.9235 20.8542C75.8836 21.2414 75.9741 21.5238 76.195 21.7014C76.215 21.7172 76.2392 21.7276 76.2657 21.7318C76.2922 21.736 76.3202 21.7338 76.3471 21.7254C76.8003 21.5785 77.2056 21.3581 77.5632 21.0643C77.8661 20.8161 78.1912 20.4995 78.5385 20.1146C79.0623 19.5362 79.4398 18.8398 79.671 18.0257C79.7461 17.7592 79.7604 17.5098 79.7137 17.2775C79.6317 16.8653 79.5896 16.6461 79.5873 16.6199C79.5543 16.1143 79.5036 15.7858 79.4353 15.6344C79.2781 15.2836 79.1614 14.9198 79.0851 14.5429C78.9951 14.1091 78.834 13.7578 78.6017 13.489C78.5818 13.466 78.5566 13.4482 78.5282 13.4371C78.4999 13.4261 78.4693 13.422 78.439 13.4254C78.4088 13.4287 78.3798 13.4394 78.3546 13.4564C78.3294 13.4735 78.3087 13.4964 78.2943 13.5232ZM106.176 20.4597C106.157 20.4818 106.144 20.5082 106.138 20.5365C106.089 20.7631 106.134 20.955 106.273 21.1121C106.385 21.2413 106.457 21.4012 106.479 21.5716C106.541 22.0316 106.638 22.4592 106.771 22.8544C106.903 23.2461 107.124 23.5837 107.434 23.8673C107.673 24.0859 107.929 24.2835 108.203 24.46C108.317 24.534 108.481 24.5949 108.696 24.6427C108.88 24.6826 109.049 24.7469 109.204 24.8357C109.213 24.8408 109.223 24.8436 109.234 24.8438C109.244 24.844 109.255 24.8417 109.264 24.837C109.273 24.8323 109.282 24.8253 109.288 24.8168C109.294 24.8082 109.298 24.7983 109.299 24.7879C109.349 24.3882 109.517 24.1292 109.803 24.0107C109.861 23.9863 109.907 23.9529 109.935 23.9151C110.092 23.6964 110.147 23.4442 110.1 23.1584C110.093 23.1081 110.063 23.0602 110.017 23.0252C109.82 22.8726 109.673 22.6853 109.576 22.4632C109.426 22.1193 109.328 21.924 109.282 21.8773C109.143 21.735 108.955 21.6075 108.718 21.4947C108.397 21.3433 108.159 21.1548 108.003 20.9294C107.852 20.7119 107.675 20.6458 107.472 20.7312C107.41 20.7563 107.357 20.766 107.311 20.7603C106.986 20.7193 106.686 20.6077 106.411 20.4255C106.387 20.4096 106.359 20.3998 106.33 20.397C106.301 20.3942 106.272 20.3985 106.245 20.4094C106.218 20.4203 106.194 20.4376 106.176 20.4597Z" fill="white"/>
</g>
<defs>
<clipPath id="clip0_102_99">
<rect width="110" height="35" fill="white"/>
</clipPath>
</defs>
</svg>
