<svg width="307" height="39" viewBox="0 0 307 39" fill="none" xmlns="http://www.w3.org/2000/svg">
<g clip-path="url(#clip0_564_215)">
<path d="M59.9448 14.3236H55.1157C54.8333 14.3236 54.603 14.0927 54.603 13.8094V10.5506C54.603 10.2673 54.8333 10.0364 55.1157 10.0364H71.1674C71.4498 10.0364 71.6801 10.2673 71.6801 10.5506V13.8094C71.6801 14.0927 71.4498 14.3236 71.1674 14.3236H66.3644C66.0819 14.3236 65.8517 14.5545 65.8517 14.8379V28.6442C65.8517 28.9275 65.6215 29.1584 65.339 29.1584H60.9755C60.693 29.1584 60.4628 28.9275 60.4628 28.6442V14.8379C60.4628 14.5545 60.2326 14.3236 59.95 14.3236H59.9448Z" fill="white"/>
<path d="M98.2765 25.4956V28.6442C98.2765 28.9275 98.0462 29.1584 97.7636 29.1584H83.4805C83.1979 29.1584 82.9677 28.9275 82.9677 28.6442V10.5506C82.9677 10.2673 83.1979 10.0364 83.4805 10.0364H97.4079C97.6905 10.0364 97.9206 10.2673 97.9206 10.5506V13.6992C97.9206 13.9825 97.6905 14.2134 97.4079 14.2134H88.8222C88.5398 14.2134 88.3095 14.4443 88.3095 14.7277V16.9211C88.3095 17.2045 88.5398 17.4355 88.8222 17.4355H96.2673C96.5499 17.4355 96.7801 17.6663 96.7801 17.9497V20.9618C96.7801 21.2452 96.5499 21.476 96.2673 21.476H88.8222C88.5398 21.476 88.3095 21.7069 88.3095 21.9902V24.4567C88.3095 24.74 88.5398 24.9709 88.8222 24.9709H97.7636C98.0462 24.9709 98.2765 25.2019 98.2765 25.4852V25.4956Z" fill="white"/>
<path d="M117.485 22.662L116.015 24.231C115.926 24.3255 115.874 24.4515 115.874 24.5827V28.6442C115.874 28.9275 115.643 29.1584 115.361 29.1584H111.05C110.767 29.1584 110.537 28.9275 110.537 28.6442V10.5506C110.537 10.2673 110.767 10.0364 111.05 10.0364H115.361C115.643 10.0364 115.874 10.2673 115.874 10.5506V16.6745C115.874 17.1416 116.444 17.3672 116.763 17.0261L123.104 10.1991C123.204 10.0941 123.34 10.0364 123.481 10.0364H128.022C128.472 10.0364 128.702 10.5716 128.399 10.9022L121.697 18.1859C121.524 18.3694 121.514 18.6529 121.665 18.8522L128.959 28.3347C129.22 28.6757 128.98 29.1637 128.551 29.1637H123.58C123.423 29.1637 123.272 29.0903 123.177 28.9643L118.254 22.6935C118.061 22.4469 117.689 22.4311 117.475 22.662H117.485Z" fill="white"/>
<path d="M158.429 10.5506V28.6442C158.429 28.9275 158.198 29.1584 157.916 29.1584H154.233C154.08 29.1584 153.935 29.0903 153.835 28.9695L146.484 20.0645C146.175 19.6919 145.573 19.9123 145.573 20.395V28.639C145.573 28.9223 145.343 29.1532 145.061 29.1532H140.802C140.519 29.1532 140.289 28.9223 140.289 28.639V10.5506C140.289 10.2673 140.519 10.0364 140.802 10.0364H144.485C144.637 10.0364 144.783 10.1046 144.883 10.2253L152.239 19.1304C152.548 19.503 153.149 19.2825 153.149 18.7997V10.5506C153.149 10.2673 153.379 10.0364 153.662 10.0364H157.916C158.198 10.0364 158.429 10.2673 158.429 10.5506Z" fill="white"/>
<path d="M183.942 25.4435H176.57C176.36 25.4435 176.172 25.5693 176.094 25.7636L174.854 28.8333C174.776 29.0276 174.588 29.1534 174.378 29.1534H170.009C169.639 29.1534 169.387 28.7704 169.539 28.4293L177.502 10.3357C177.585 10.1468 177.769 10.0261 177.972 10.0261H182.614C182.817 10.0261 183.001 10.1468 183.084 10.3357L191.073 28.4293C191.224 28.7704 190.973 29.1534 190.603 29.1534H186.128C185.92 29.1534 185.732 29.0276 185.652 28.8333L184.412 25.7636C184.334 25.5693 184.146 25.4435 183.936 25.4435H183.942ZM182.425 20.7468L180.735 16.5278C180.562 16.0976 179.955 16.0976 179.777 16.5278L178.087 20.7468C177.951 21.088 178.203 21.4553 178.563 21.4553H181.943C182.309 21.4553 182.555 21.088 182.419 20.7468H182.425Z" fill="white"/>
<path d="M204.392 28.9692C203.126 28.6386 202.068 28.2083 201.215 27.6835C200.996 27.5471 200.923 27.269 201.027 27.0329L202.383 23.984C202.509 23.7006 202.848 23.601 203.115 23.7584C203.848 24.1835 204.675 24.5351 205.59 24.8184C206.714 25.1647 207.824 25.3378 208.912 25.3378C210.983 25.3378 212.02 24.8184 212.02 23.7793C212.02 23.2336 211.727 22.8296 211.135 22.5619C210.544 22.2943 209.598 22.0215 208.289 21.7276C206.856 21.4179 205.658 21.0874 204.695 20.7306C203.732 20.3737 202.905 19.807 202.215 19.0251C201.524 18.2432 201.178 17.1832 201.178 15.8556C201.178 14.6906 201.498 13.6358 202.131 12.7018C202.764 11.7625 203.716 11.0226 204.978 10.4768C206.238 9.93107 207.787 9.6582 209.624 9.6582C210.879 9.6582 212.114 9.79988 213.328 10.0832C214.369 10.3246 215.305 10.6657 216.137 11.1013C216.373 11.2272 216.467 11.5158 216.362 11.7625L215.09 14.8375C214.976 15.1156 214.651 15.2258 214.385 15.0894C212.742 14.276 211.145 13.872 209.592 13.872C208.52 13.872 207.739 14.0294 207.248 14.3495C206.757 14.6696 206.51 15.0842 206.51 15.5932C206.51 16.1022 206.804 16.4852 207.384 16.7424C207.964 16.9995 208.901 17.2619 210.189 17.5347C211.643 17.8444 212.846 18.1751 213.798 18.5319C214.751 18.8887 215.577 19.4501 216.278 20.2268C216.979 21.0034 217.325 22.0529 217.325 23.3806C217.325 24.5297 217.005 25.5688 216.373 26.4976C215.739 27.4265 214.783 28.1663 213.511 28.7226C212.24 29.2787 210.695 29.5569 208.88 29.5569C207.337 29.5569 205.835 29.368 204.387 28.985L204.392 28.9692Z" fill="white"/>
<path d="M238.882 22.4469V28.6494C238.882 28.9327 238.651 29.1637 238.369 29.1637H234.005C233.723 29.1637 233.492 28.9327 233.492 28.6494V22.3682C233.492 22.2737 233.466 22.1845 233.419 22.1005L226.686 10.8183C226.481 10.4719 226.727 10.0364 227.125 10.0364H231.62C231.802 10.0364 231.97 10.1308 232.059 10.2883L235.989 16.8897C236.186 17.2255 236.673 17.2255 236.872 16.8897L240.802 10.2883C240.895 10.1308 241.063 10.0364 241.241 10.0364H245.275C245.673 10.0364 245.924 10.4719 245.714 10.8183L238.949 22.1845C238.902 22.2632 238.876 22.3576 238.876 22.4469H238.882Z" fill="white"/>
<path d="M260.176 28.2605C258.571 27.4052 257.305 26.2192 256.388 24.7079C255.472 23.1966 255.013 21.4911 255.013 19.5969C255.013 17.7025 255.472 15.9971 256.388 14.4857C257.305 12.9744 258.571 11.7885 260.176 10.9331C261.782 10.0778 263.598 9.64746 265.612 9.64746C267.627 9.64746 269.442 10.0778 271.048 10.9331C272.654 11.7885 273.92 12.9744 274.837 14.4857C275.752 15.9971 276.212 17.7025 276.212 19.5969C276.212 21.4911 275.752 23.1966 274.837 24.7079C273.92 26.2192 272.654 27.4052 271.048 28.2605C269.442 29.1159 267.627 29.5462 265.612 29.5462C263.598 29.5462 261.782 29.1211 260.176 28.2605ZM268.228 24.3827C269.008 23.926 269.624 23.2858 270.081 22.4567C270.535 21.6277 270.76 20.6778 270.76 19.6021C270.76 18.5263 270.535 17.5765 270.081 16.7475C269.624 15.9182 269.008 15.278 268.228 14.8216C267.449 14.365 266.575 14.1394 265.612 14.1394C264.649 14.1394 263.775 14.365 262.996 14.8216C262.217 15.278 261.6 15.9182 261.144 16.7475C260.689 17.5765 260.464 18.5263 260.464 19.6021C260.464 20.6778 260.689 21.6277 261.144 22.4567C261.6 23.2858 262.217 23.926 262.996 24.3827C263.775 24.8391 264.649 25.0648 265.612 25.0648C266.575 25.0648 267.449 24.8391 268.228 24.3827Z" fill="white"/>
<path d="M306.451 10.5506V28.6442C306.451 28.9275 306.221 29.1584 305.938 29.1584H302.255C302.103 29.1584 301.957 29.0903 301.857 28.9695L294.506 20.0645C294.197 19.6919 293.595 19.9123 293.595 20.395V28.639C293.595 28.9223 293.366 29.1532 293.082 29.1532H288.824C288.542 29.1532 288.311 28.9223 288.311 28.639V10.5506C288.311 10.2673 288.542 10.0364 288.824 10.0364H292.508C292.66 10.0364 292.805 10.1046 292.905 10.2253L300.262 19.1304C300.57 19.503 301.171 19.2825 301.171 18.7997V10.5506C301.171 10.2673 301.402 10.0364 301.684 10.0364H305.938C306.221 10.0364 306.451 10.2673 306.451 10.5506Z" fill="white"/>
<path d="M13.318 37.7244C15.0897 38.279 16.9472 38.5564 18.8354 38.5564C29.0672 38.5564 37.3923 30.2179 37.3923 19.9751C37.3923 19.4883 37.3739 18.9953 37.3309 18.5022C36.9693 18.724 36.5953 18.9397 36.2152 19.1431C33.5239 20.5729 30.7161 21.3002 27.8532 21.3002C25.9957 21.3002 24.1197 20.9859 22.2561 20.3696C22.2378 20.5668 22.2133 20.7701 22.1827 20.9674C21.8026 23.5558 20.3742 27.2967 15.7211 30.4028C14.2314 31.3951 13.3731 32.6153 13.0911 34.1375C12.895 35.2037 12.9685 36.4056 13.3118 37.7244H13.318Z" fill="white"/>
<path d="M8.34765 35.2718C3.35133 31.8267 0.292236 26.0645 0.292236 19.9508C0.292236 19.1373 0.34741 18.3238 0.451629 17.5287C1.40798 16.9617 2.83638 16.2285 4.57129 15.7169C6.00582 15.2977 7.43422 15.082 8.81356 15.082C11.5845 15.082 14.2758 15.9387 16.8077 17.6212C17.0652 17.7937 17.3288 17.9601 17.5863 18.1204C17.8499 19.7782 17.7762 23.4082 13.1601 26.4835C10.5975 28.1967 9.0404 30.4832 8.52543 33.2812C8.40896 33.9221 8.34765 34.5877 8.34765 35.2718Z" fill="white"/>
<path d="M34.1264 15.483C29.2344 18.0405 24.1277 17.5906 18.9474 14.1394C14.1228 10.9223 8.67283 10.1027 3.18607 11.7543C2.40751 11.9885 1.67799 12.2597 1.00977 12.5432C3.87882 5.56059 10.7388 0.642578 18.7452 0.642578C27.1746 0.642578 34.341 6.09677 36.9036 13.671C36.1004 14.2996 35.1747 14.9344 34.1264 15.483Z" fill="white"/>
</g>
<defs>
<clipPath id="clip0_564_215">
<rect width="307" height="39" fill="white"/>
</clipPath>
</defs>
</svg>
